name ./resultDataOpenSim/trcMotMarkerGrf/sub06/grf-12-06.mot
datacolumns 19
datarows 20
range 0.53600000 0.61200000
endheader

                time	     ground_force_vx	     ground_force_vy	     ground_force_vz	     ground_force_px	     ground_force_py	     ground_force_pz	   l_ground_force_vx	   l_ground_force_vy	   l_ground_force_vz	   l_ground_force_px	   l_ground_force_py	   l_ground_force_pz	     ground_torque_x	     ground_torque_y	     ground_torque_z	   l_ground_torque_x	   l_ground_torque_y	   l_ground_torque_z	
          0.53600000	         81.79728452	        619.29814164	        -29.90182989	         -0.76442101	          0.00000000	          0.10743303	          0.00000000	          0.00000000	          0.00000000	          0.00000000	          0.00000000	          0.00000000	          0.00000000	          2.33718538	          0.00000000	          0.00000000	          0.00000000	          0.00000000	
          0.54000000	         87.96408247	        634.15856614	        -31.12999063	         -0.76421153	          0.00000000	          0.10726495	          0.00000000	          0.00000000	          0.00000000	          0.00000000	          0.00000000	          0.00000000	          0.00000000	          2.29353652	          0.00000000	          0.00000000	          0.00000000	          0.00000000	
          0.54400000	         94.23926566	        648.52753944	        -32.45917978	         -0.76406608	          0.00000000	          0.10709057	          0.00000000	          0.00000000	          0.00000000	          0.00000000	          0.00000000	          0.00000000	          0.00000000	          2.24541004	          0.00000000	          0.00000000	          0.00000000	          0.00000000	
          0.54800000	        100.63047255	        662.13300793	        -33.84566040	         -0.76393655	          0.00000000	          0.10694837	          0.00000000	          0.00000000	          0.00000000	          0.00000000	          0.00000000	          0.00000000	          0.00000000	          2.19391278	          0.00000000	          0.00000000	          0.00000000	          0.00000000	
          0.55200000	        107.15033930	        674.71030888	        -35.28404868	         -0.76373649	          0.00000000	          0.10688082	          0.00000000	          0.00000000	          0.00000000	          0.00000000	          0.00000000	          0.00000000	          0.00000000	          2.13829954	          0.00000000	          0.00000000	          0.00000000	          0.00000000	
          0.55600000	        113.81674154	        686.21576809	        -36.77729309	         -0.76344678	          0.00000000	          0.10688064	          0.00000000	          0.00000000	          0.00000000	          0.00000000	          0.00000000	          0.00000000	          0.00000000	          2.07713619	          0.00000000	          0.00000000	          0.00000000	          0.00000000	
          0.56000000	        120.66805563	        696.83761425	        -38.31151575	         -0.76315169	          0.00000000	          0.10689182	          0.00000000	          0.00000000	          0.00000000	          0.00000000	          0.00000000	          0.00000000	          0.00000000	          2.00921188	          0.00000000	          0.00000000	          0.00000000	          0.00000000	
          0.56400000	        127.72747717	        706.78933114	        -39.87113386	         -0.76294813	          0.00000000	          0.10686208	          0.00000000	          0.00000000	          0.00000000	          0.00000000	          0.00000000	          0.00000000	          0.00000000	          1.93413182	          0.00000000	          0.00000000	          0.00000000	          0.00000000	
          0.56800000	        134.94378310	        716.09936869	        -41.45111618	         -0.76283636	          0.00000000	          0.10678641	          0.00000000	          0.00000000	          0.00000000	          0.00000000	          0.00000000	          0.00000000	          0.00000000	          1.85268732	          0.00000000	          0.00000000	          0.00000000	          0.00000000	
          0.57200000	        142.19577669	        724.59674721	        -43.03540821	         -0.76271210	          0.00000000	          0.10670083	          0.00000000	          0.00000000	          0.00000000	          0.00000000	          0.00000000	          0.00000000	          0.00000000	          1.76696727	          0.00000000	          0.00000000	          0.00000000	          0.00000000	
          0.57600000	        149.35785678	        732.11137434	        -44.57957565	         -0.76247828	          0.00000000	          0.10663845	          0.00000000	          0.00000000	          0.00000000	          0.00000000	          0.00000000	          0.00000000	          0.00000000	          1.67998779	          0.00000000	          0.00000000	          0.00000000	          0.00000000	
          0.58000000	        156.35156116	        738.68664708	        -46.02479549	         -0.76214233	          0.00000000	          0.10658510	          0.00000000	          0.00000000	          0.00000000	          0.00000000	          0.00000000	          0.00000000	          0.00000000	          1.59467793	          0.00000000	          0.00000000	          0.00000000	          0.00000000	
          0.58400000	        163.14549158	        744.52601544	        -47.31953539	         -0.76180344	          0.00000000	          0.10648582	          0.00000000	          0.00000000	          0.00000000	          0.00000000	          0.00000000	          0.00000000	          0.00000000	          1.51243930	          0.00000000	          0.00000000	          0.00000000	          0.00000000	
          0.58800000	        169.74041476	        749.67549937	        -48.41947771	         -0.76152423	          0.00000000	          0.10631378	          0.00000000	          0.00000000	          0.00000000	          0.00000000	          0.00000000	          0.00000000	          0.00000000	          1.43201109	          0.00000000	          0.00000000	          0.00000000	          0.00000000	
          0.59200000	        176.17733460	        753.82847703	        -49.27218331	         -0.76124008	          0.00000000	          0.10611917	          0.00000000	          0.00000000	          0.00000000	          0.00000000	          0.00000000	          0.00000000	          0.00000000	          1.34955118	          0.00000000	          0.00000000	          0.00000000	          0.00000000	
          0.59600000	        182.53365429	        756.56710423	        -49.82060683	         -0.76080978	          0.00000000	          0.10598312	          0.00000000	          0.00000000	          0.00000000	          0.00000000	          0.00000000	          0.00000000	          0.00000000	          1.26019849	          0.00000000	          0.00000000	          0.00000000	          0.00000000	
          0.60000000	        188.89171388	        757.80313456	        -50.03198561	         -0.76017729	          0.00000000	          0.10591186	          0.00000000	          0.00000000	          0.00000000	          0.00000000	          0.00000000	          0.00000000	          0.00000000	          1.16015167	          0.00000000	          0.00000000	          0.00000000	          0.00000000	
          0.60400000	        195.34012691	        757.83581014	        -49.91069781	         -0.75952169	          0.00000000	          0.10579058	          0.00000000	          0.00000000	          0.00000000	          0.00000000	          0.00000000	          0.00000000	          0.00000000	          1.04769852	          0.00000000	          0.00000000	          0.00000000	          0.00000000	
          0.60800000	        201.97895128	        756.86211998	        -49.47312693	         -0.75908415	          0.00000000	          0.10552526	          0.00000000	          0.00000000	          0.00000000	          0.00000000	          0.00000000	          0.00000000	          0.00000000	          0.92262704	          0.00000000	          0.00000000	          0.00000000	          0.00000000	
          0.61200000	        208.83251134	        754.52011813	        -48.71625102	         -0.75886383	          0.00000000	          0.10516337	          0.00000000	          0.00000000	          0.00000000	          0.00000000	          0.00000000	          0.00000000	          0.00000000	          0.78510274	          0.00000000	          0.00000000	          0.00000000	          0.00000000	
